<?xml version="1.0" encoding="UTF-8"?>
<svg id="Layer_1" xmlns="http://www.w3.org/2000/svg" version="1.1" viewBox="0 0 179.66 96.62">
  <!-- Generator: Adobe Illustrator 29.2.1, SVG Export Plug-In . SVG Version: 2.1.0 Build 116)  -->
  <defs>
    <style>
      .st0 {
        fill: #c50636;
      }

      .st1 {
        fill: #fff;
      }
    </style>
  </defs>
  <rect class="st0" width="179.66" height="96.62"/>
  <path class="st1" d="M53.33,38.34s-.03,0-.05.03c-.41.55-.89.83-1.41.83-.05,0-.1,0-.13,0-.02,0-.04,0-.05,0-.01,0-.04,0-.05.02v.03s0,.02,0,.02c.49.57.65.76.88.76.11,0,.24-.05.42-.12.04-.02.09-.04.13-.05.45-.18.47-.82.4-1.17-.01-.08-.07-.33-.16-.33M71.91,42.6c0,1.93-.49,3.39-.5,3.41v.02h-.03c-.19,0-19.44.02-30.23.02-5.66,0-6.93,0-7.22-.01,5.11,6.09,11.39,9.18,18.65,9.18.53,0,1.07-.02,1.6-.05h.06c4.22,0,7.78-1.32,10.02-2.42,2.51-1.24,3.94-2.47,3.98-2.51l.04-.06.02.09h-.01s-.02.04-.02.04c-.98,1.47-6.51,4.86-10.97,7.43-7,4.04-11.04,9-13.2,12.44-2.34,3.73-3.03,6.54-3.03,6.57h-.06v-16.18h-16.32v-24.58h16.16v-16.12h24.55v.03c.04,8.44,0,8.48-.01,8.49h0s-.03,0-.03,0c-2.99.04-5.26.89-6.12,1.21-.1.04-.18.07-.24.09-.22.07-1.02.6-1.87,1.15-1.11.73-2.36,1.55-2.89,1.76-.26.1-.59.2-.94.29-.93.26-2.08.58-2.84,1.34-1.92,1.94-2.29,2.85-3.15,5.45-.63,1.89-.03,2.26.19,2.4.06.03.09.06.1.1,0,.02,0,.04-.03.06-.27.24-1.35,1.89-1.63,2.37.15-.13.49-.43.76-.66.55-.49.6-.53.63-.53h.02v.02s0,.04,0,.05c-.09.11-.04,1.25-.01,1.71.09-.29.29-.84.49-1.35.55-1.41.62-1.41.65-1.41h.03s.14.05.4.05c.46,0,1.13-.07,1.5-.21,1-.38,1.32-.48,1.73-.61.41-.13.88-.28,2.19-.76,2.22-.82,2.76-1.54,3.12-2.02.06-.08.11-.15.17-.22.23-.27.22-1.39.21-2.13,0-.58,0-.81.04-.86,1.36-1.38,3.31-2.16,5.34-2.16,1.58,0,3.95.48,6.25,2.75,2.05,2.03,2.48,4.57,2.48,6.35"/>
  <path class="st1" d="M96.1,39.44c-.08.08-.18.12-.3.12h-7.49c-.12,0-.17.06-.17.18v6.64c0,.12.06.18.17.18h4.42c.12,0,.21.04.3.12.08.08.12.18.12.3v2.7c0,.12-.04.22-.12.3-.08.08-.18.12-.3.12h-4.42c-.12,0-.17.06-.17.17v9.94c0,.12-.04.22-.12.3-.08.08-.18.12-.3.12h-3.21c-.12,0-.21-.04-.29-.12-.08-.08-.12-.18-.12-.3v-23.73c0-.12.04-.22.12-.3.08-.08.18-.12.29-.12h11.28c.12,0,.21.04.3.12.08.08.12.18.12.3v2.67c0,.12-.04.22-.12.3"/>
  <path class="st1" d="M110.59,39.44c-.08.08-.18.12-.3.12h-7.52c-.12,0-.17.06-.17.18v6.64c0,.12.06.18.17.18h4.46c.12,0,.22.04.3.12.08.08.12.18.12.3v2.7c0,.12-.04.22-.12.3-.08.08-.18.12-.3.12h-4.46c-.12,0-.17.06-.17.17v6.67c0,.12.06.17.17.17h7.52c.12,0,.21.04.3.12.08.08.12.18.12.3v2.67c0,.12-.04.22-.12.3-.08.08-.18.12-.3.12h-11.32c-.12,0-.22-.04-.3-.12-.08-.08-.12-.18-.12-.3v-23.73c0-.12.04-.22.12-.3.08-.08.18-.12.3-.12h11.32c.12,0,.21.04.3.12.08.08.12.18.12.3v2.67c0,.12-.04.22-.12.3"/>
  <path class="st1" d="M125.7,39.44c-.08.08-.18.12-.3.12h-7.49c-.12,0-.17.06-.17.18v6.64c0,.12.06.18.17.18h4.42c.12,0,.22.04.3.12s.12.18.12.3v2.7c0,.12-.04.22-.12.3s-.18.12-.3.12h-4.42c-.12,0-.17.06-.17.17v9.94c0,.12-.04.22-.12.3-.08.08-.18.12-.3.12h-3.2c-.12,0-.21-.04-.3-.12-.08-.08-.12-.18-.12-.3v-23.73c0-.12.04-.22.12-.3.08-.08.18-.12.3-.12h11.28c.12,0,.21.04.3.12.08.08.12.18.12.3v2.67c0,.12-.04.22-.12.3"/>
  <path class="st1" d="M130.98,53.18h3.87c.14,0,.2-.06.17-.17l-2.02-11.1c-.02-.07-.06-.11-.1-.11s-.08.04-.1.11l-1.99,11.1c-.02.12.04.17.17.17M136.34,60.24l-.66-3.69c0-.12-.07-.18-.21-.18h-5.09c-.14,0-.21.06-.21.18l-.66,3.69c-.02.26-.17.39-.45.39h-3.17c-.33,0-.45-.15-.38-.46l5.15-23.73c.05-.26.2-.39.45-.39h3.69c.26,0,.41.13.45.39l5.15,23.73v.14c0,.21-.13.32-.38.32h-3.24c-.28,0-.43-.13-.45-.39"/>
  <path class="st1" d="M143.61,59.1c-1.2-1.2-1.79-2.8-1.79-4.79v-11.97c0-2.01.6-3.61,1.79-4.79s2.78-1.77,4.75-1.77,3.6.59,4.81,1.77c1.21,1.18,1.81,2.78,1.81,4.79v.42c0,.12-.04.22-.12.32-.08.09-.18.14-.3.14l-3.24.14c-.28,0-.42-.14-.42-.42v-.88c0-.82-.23-1.49-.7-2-.46-.51-1.08-.77-1.85-.77s-1.35.26-1.81.77c-.46.52-.7,1.18-.7,2v12.57c0,.82.23,1.49.7,2,.46.52,1.07.77,1.81.77s1.38-.26,1.85-.77c.46-.51.7-1.18.7-2v-.88c0-.12.04-.22.12-.3.08-.08.18-.12.3-.12l3.24.14c.12,0,.22.04.3.12.08.08.12.18.12.3v.42c0,1.99-.6,3.59-1.81,4.79-1.21,1.21-2.81,1.81-4.81,1.81s-3.56-.6-4.75-1.81"/>
</svg>